<?xml version="1.0" encoding="UTF-8" standalone="no"?><!DOCTYPE svg PUBLIC "-//W3C//DTD SVG 1.1//EN" "http://www.w3.org/Graphics/SVG/1.1/DTD/svg11.dtd"><svg width="100%" height="100%" viewBox="0 0 768 768" version="1.1" xmlns="http://www.w3.org/2000/svg" xmlns:xlink="http://www.w3.org/1999/xlink" xml:space="preserve" xmlns:serif="http://www.serif.com/" style="fill-rule:evenodd;clip-rule:evenodd;stroke-linejoin:round;stroke-miterlimit:2;"><rect id="Logo" x="0" y="0" width="768" height="768" style="fill:none;"/><g><path d="M391.5,47.414c189.906,-0 344.086,154.18 344.086,344.086c0,189.906 -154.18,344.086 -344.086,344.086c-189.906,0 -344.086,-154.18 -344.086,-344.086c-0,-189.906 154.18,-344.086 344.086,-344.086Zm0,20.26c178.724,-0 323.826,145.102 323.826,323.826c0,178.724 -145.102,323.826 -323.826,323.826c-178.724,0 -323.826,-145.102 -323.826,-323.826c-0,-178.724 145.102,-323.826 323.826,-323.826Z" style="fill:#49adb6;"/><path d="M376.5,32.414c189.906,-0 344.086,154.18 344.086,344.086c0,189.906 -154.18,344.086 -344.086,344.086c-189.906,0 -344.086,-154.18 -344.086,-344.086c-0,-189.906 154.18,-344.086 344.086,-344.086Zm0,20.26c178.724,-0 323.826,145.102 323.826,323.826c0,178.724 -145.102,323.826 -323.826,323.826c-178.724,0 -323.826,-145.102 -323.826,-323.826c-0,-178.724 145.102,-323.826 323.826,-323.826Z" style="fill:#d34727;"/><path d="M384,39.914c189.906,-0 344.086,154.18 344.086,344.086c0,189.906 -154.18,344.086 -344.086,344.086c-189.906,0 -344.086,-154.18 -344.086,-344.086c-0,-189.906 154.18,-344.086 344.086,-344.086Zm0,20.26c178.724,-0 323.826,145.102 323.826,323.826c0,178.724 -145.102,323.826 -323.826,323.826c-178.724,0 -323.826,-145.102 -323.826,-323.826c-0,-178.724 145.102,-323.826 323.826,-323.826Z" style="fill:#fff;"/></g><g><path d="M259.919,490.997c-8.539,-0 -12.808,-4.27 -12.808,-12.808l0,-285.878c0,-8.538 4.269,-12.808 12.808,-12.808c6.122,0 10.955,2.82 14.499,8.458l120.344,183.9l-5.799,0.725l120.344,-184.625c3.383,-5.638 8.458,-8.458 15.224,-8.458c7.572,0 11.358,4.27 11.358,12.808l-0,285.878c-0,8.538 -4.189,12.808 -12.566,12.808c-8.539,-0 -12.808,-4.27 -12.808,-12.808l0,-260.504l7.491,2.416l-111.644,170.126c-3.544,5.477 -8.619,8.216 -15.224,8.216c-5.8,-0 -10.472,-2.739 -14.016,-8.216l-111.645,-170.126l7.008,2.659l-0,255.429c-0,8.538 -4.189,12.808 -12.566,12.808Z" style="fill:#49adb6;fill-rule:nonzero;"/><path d="M244.919,475.997c-8.539,-0 -12.808,-4.27 -12.808,-12.808l0,-285.878c0,-8.538 4.269,-12.808 12.808,-12.808c6.122,0 10.955,2.82 14.499,8.458l120.344,183.9l-5.799,0.725l120.344,-184.625c3.383,-5.638 8.458,-8.458 15.224,-8.458c7.572,0 11.358,4.27 11.358,12.808l-0,285.878c-0,8.538 -4.189,12.808 -12.566,12.808c-8.539,-0 -12.808,-4.27 -12.808,-12.808l0,-260.504l7.491,2.416l-111.644,170.126c-3.544,5.477 -8.619,8.216 -15.224,8.216c-5.8,-0 -10.472,-2.739 -14.016,-8.216l-111.645,-170.126l7.008,2.659l-0,255.429c-0,8.538 -4.189,12.808 -12.566,12.808Z" style="fill:#d34727;fill-rule:nonzero;"/><path d="M252.419,483.497c-8.539,-0 -12.808,-4.27 -12.808,-12.808l0,-285.878c0,-8.538 4.269,-12.808 12.808,-12.808c6.122,0 10.955,2.82 14.499,8.458l120.344,183.9l-5.799,0.725l120.344,-184.625c3.383,-5.638 8.458,-8.458 15.224,-8.458c7.572,0 11.358,4.27 11.358,12.808l-0,285.878c-0,8.538 -4.189,12.808 -12.566,12.808c-8.539,-0 -12.808,-4.27 -12.808,-12.808l0,-260.504l7.491,2.416l-111.644,170.126c-3.544,5.477 -8.619,8.216 -15.224,8.216c-5.8,-0 -10.472,-2.739 -14.016,-8.216l-111.645,-170.126l7.008,2.659l-0,255.429c-0,8.538 -4.189,12.808 -12.566,12.808Z" style="fill:#fff;fill-rule:nonzero;"/></g><g><path d="M197.229,584.827c-2.333,0 -3.5,-1.166 -3.5,-3.5l0,-49.5c0,-2.333 1.167,-3.5 3.5,-3.5c1.528,0 2.806,0.75 3.833,2.25l19.667,29.584l-1.5,0.25l19.834,-29.834c0.944,-1.5 2.361,-2.25 4.25,-2.25c1.888,0 2.833,1.167 2.833,3.5l-0,49.5c-0,2.334 -1.167,3.5 -3.5,3.5c-2.333,0 -3.5,-1.166 -3.5,-3.5l-0,-42.5l2.167,0.75l-17.5,25.75c-1.028,1.5 -2.445,2.25 -4.25,2.25c-1.251,0 -2.389,-0.75 -3.417,-2.25l-17.5,-25.75l2.083,0.584l0,41.166c0,2.334 -1.167,3.5 -3.5,3.5Z" style="fill:#49adb6;fill-rule:nonzero;"/><path d="M265.813,535.744c-2.639,-0 -3.959,-1.333 -3.959,-4l0,-2.458c0,-2.611 1.32,-3.917 3.959,-3.917l2.416,-0c2.528,-0 3.792,1.306 3.792,3.917l-0,2.458c-0,2.667 -1.264,4 -3.792,4l-2.416,-0Zm1.166,49.083c-2.333,0 -3.5,-1.166 -3.5,-3.5l0,-35.25c0,-2.333 1.167,-3.5 3.5,-3.5c2.333,0 3.5,1.167 3.5,3.5l0,35.25c0,2.334 -1.167,3.5 -3.5,3.5Z" style="fill:#49adb6;fill-rule:nonzero;"/><path d="M291.312,584.827c-2.333,0 -3.499,-1.166 -3.499,-3.5l-0,-35.25c-0,-2.333 1.166,-3.5 3.499,-3.5c2.334,0 3.5,1.167 3.5,3.5l0,1.375c2.945,-3.25 7.278,-4.875 13,-4.875l2.334,0c5.555,0 9.666,1.334 12.333,4c2.667,2.667 4,6.778 4,12.334l0,22.416c0,2.334 -1.166,3.5 -3.5,3.5c-2.333,0 -3.5,-1.166 -3.5,-3.5l0,-22.416c0,-3.639 -0.66,-6.105 -1.979,-7.396c-1.319,-1.292 -3.771,-1.938 -7.354,-1.938l-2.334,0c-3.333,0 -6.236,0.382 -8.708,1.146c-2.472,0.764 -3.903,1.965 -4.292,3.604l0,27c0,2.334 -1.166,3.5 -3.5,3.5Z" style="fill:#49adb6;fill-rule:nonzero;"/><path d="M345.313,535.744c-2.639,-0 -3.959,-1.333 -3.959,-4l0,-2.458c0,-2.611 1.32,-3.917 3.959,-3.917l2.416,-0c2.528,-0 3.792,1.306 3.792,3.917l-0,2.458c-0,2.667 -1.264,4 -3.792,4l-2.416,-0Zm1.166,49.083c-2.333,0 -3.5,-1.166 -3.5,-3.5l0,-35.25c0,-2.333 1.167,-3.5 3.5,-3.5c2.333,0 3.5,1.167 3.5,3.5l0,35.25c0,2.334 -1.167,3.5 -3.5,3.5Z" style="fill:#49adb6;fill-rule:nonzero;"/><path d="M368.562,565.244c-0.777,-0 -1.458,-0.292 -2.041,-0.875c-0.584,-0.583 -0.875,-1.264 -0.875,-2.042c-0,-0.805 0.291,-1.493 0.875,-2.062c0.583,-0.57 1.264,-0.854 2.041,-0.854l23,-0c0.806,-0 1.494,0.284 2.063,0.854c0.569,0.569 0.854,1.257 0.854,2.062c0,0.778 -0.285,1.459 -0.854,2.042c-0.569,0.583 -1.257,0.875 -2.063,0.875l-23,-0Z" style="fill:#49adb6;fill-rule:nonzero;"/><path d="M426.812,584.827c-6.361,0 -11.062,-1.521 -14.104,-4.562c-3.041,-3.042 -4.562,-7.743 -4.562,-14.104l-0,-19.167c-0,-6.417 1.514,-11.146 4.541,-14.188c3.028,-3.041 7.709,-4.534 14.042,-4.479l10.083,0c5.223,0 9.209,1.077 11.959,3.229c2.75,2.153 4.347,5.549 4.791,10.188c0.167,1.167 -0.055,2.056 -0.666,2.667c-0.611,0.611 -1.5,0.916 -2.667,0.916c-2.111,0 -3.333,-1.166 -3.667,-3.5c-0.277,-2.555 -1.159,-4.277 -2.645,-5.166c-1.486,-0.889 -3.855,-1.334 -7.105,-1.334l-10.083,0c-2.944,-0.027 -5.257,0.306 -6.937,1c-1.681,0.695 -2.875,1.896 -3.584,3.604c-0.708,1.709 -1.062,4.063 -1.062,7.063l-0,19.167c-0,2.972 0.354,5.305 1.062,7c0.709,1.694 1.91,2.895 3.604,3.604c1.695,0.708 4.028,1.062 7,1.062l10,0c3.25,0 5.619,-0.451 7.105,-1.354c1.486,-0.903 2.368,-2.618 2.645,-5.146c0.334,-2.333 1.556,-3.5 3.667,-3.5c1.167,0 2.056,0.306 2.667,0.917c0.611,0.611 0.833,1.5 0.666,2.667c-0.444,4.666 -2.041,8.069 -4.791,10.208c-2.75,2.139 -6.736,3.208 -11.959,3.208l-10,0Z" style="fill:#49adb6;fill-rule:nonzero;"/><path d="M471.646,584.827c-2.334,0 -3.5,-1.166 -3.5,-3.5l-0,-49.5c-0,-2.333 1.166,-3.5 3.5,-3.5c1.528,0 2.805,0.75 3.833,2.25l19.667,29.584l-1.5,0.25l19.833,-29.834c0.945,-1.5 2.361,-2.25 4.25,-2.25c1.889,0 2.833,1.167 2.833,3.5l0,49.5c0,2.334 -1.166,3.5 -3.5,3.5c-2.333,0 -3.5,-1.166 -3.5,-3.5l0,-42.5l2.167,0.75l-17.5,25.75c-1.028,1.5 -2.444,2.25 -4.25,2.25c-1.25,0 -2.389,-0.75 -3.417,-2.25l-17.5,-25.75l2.084,0.584l-0,41.166c-0,2.334 -1.167,3.5 -3.5,3.5Z" style="fill:#49adb6;fill-rule:nonzero;"/><path d="M552.021,584.827c-4.75,0 -8.452,-0.958 -11.104,-2.875c-2.653,-1.916 -4.313,-4.875 -4.98,-8.875c-0.111,-1.222 0.139,-2.139 0.75,-2.75c0.612,-0.611 1.5,-0.916 2.667,-0.916c1.167,-0 2.021,0.277 2.563,0.833c0.541,0.556 0.909,1.417 1.104,2.583c0.416,1.917 1.312,3.229 2.687,3.938c1.375,0.708 3.479,1.062 6.313,1.062l12,0c3.583,0 6.021,-0.646 7.312,-1.937c1.292,-1.292 1.938,-3.702 1.938,-7.229c-0,-3.584 -0.667,-6.035 -2,-7.355c-1.334,-1.319 -3.75,-1.979 -7.25,-1.979l-10.334,0c-5.25,0 -9.145,-1.284 -11.687,-3.854c-2.542,-2.569 -3.813,-6.479 -3.813,-11.729c0,-5.222 1.257,-9.097 3.771,-11.625c2.514,-2.528 6.396,-3.792 11.646,-3.792l9.917,0c4.416,0 7.882,0.903 10.396,2.709c2.514,1.805 4.104,4.569 4.77,8.291c0.167,1.195 -0.055,2.104 -0.666,2.729c-0.611,0.625 -1.528,0.938 -2.75,0.938c-1.111,-0 -1.945,-0.292 -2.5,-0.875c-0.556,-0.583 -0.917,-1.431 -1.083,-2.542c-0.445,-1.639 -1.292,-2.757 -2.542,-3.354c-1.25,-0.597 -3.125,-0.896 -5.625,-0.896l-9.917,0c-3.333,0 -5.569,0.591 -6.708,1.771c-1.139,1.181 -1.708,3.396 -1.708,6.646c-0,3.278 0.583,5.528 1.75,6.75c1.166,1.222 3.416,1.833 6.75,1.833l10.333,0c5.472,0 9.548,1.334 12.229,4c2.681,2.667 4.021,6.778 4.021,12.334c-0,5.527 -1.333,9.604 -4,12.229c-2.667,2.625 -6.75,3.937 -12.25,3.937l-12,0Z" style="fill:#49adb6;fill-rule:nonzero;"/></g><g><path d="M191.229,578.827c-2.333,0 -3.5,-1.166 -3.5,-3.5l0,-49.5c0,-2.333 1.167,-3.5 3.5,-3.5c1.528,0 2.806,0.75 3.833,2.25l19.667,29.584l-1.5,0.25l19.834,-29.834c0.944,-1.5 2.361,-2.25 4.25,-2.25c1.888,0 2.833,1.167 2.833,3.5l-0,49.5c-0,2.334 -1.167,3.5 -3.5,3.5c-2.333,0 -3.5,-1.166 -3.5,-3.5l-0,-42.5l2.167,0.75l-17.5,25.75c-1.028,1.5 -2.445,2.25 -4.25,2.25c-1.251,0 -2.389,-0.75 -3.417,-2.25l-17.5,-25.75l2.083,0.584l0,41.166c0,2.334 -1.167,3.5 -3.5,3.5Z" style="fill:#d34727;fill-rule:nonzero;"/><path d="M259.813,529.744c-2.639,-0 -3.959,-1.333 -3.959,-4l0,-2.458c0,-2.611 1.32,-3.917 3.959,-3.917l2.416,-0c2.528,-0 3.792,1.306 3.792,3.917l-0,2.458c-0,2.667 -1.264,4 -3.792,4l-2.416,-0Zm1.166,49.083c-2.333,0 -3.5,-1.166 -3.5,-3.5l0,-35.25c0,-2.333 1.167,-3.5 3.5,-3.5c2.333,0 3.5,1.167 3.5,3.5l0,35.25c0,2.334 -1.167,3.5 -3.5,3.5Z" style="fill:#d34727;fill-rule:nonzero;"/><path d="M285.312,578.827c-2.333,0 -3.499,-1.166 -3.499,-3.5l-0,-35.25c-0,-2.333 1.166,-3.5 3.499,-3.5c2.334,0 3.5,1.167 3.5,3.5l0,1.375c2.945,-3.25 7.278,-4.875 13,-4.875l2.334,0c5.555,0 9.666,1.334 12.333,4c2.667,2.667 4,6.778 4,12.334l0,22.416c0,2.334 -1.166,3.5 -3.5,3.5c-2.333,0 -3.5,-1.166 -3.5,-3.5l0,-22.416c0,-3.639 -0.66,-6.105 -1.979,-7.396c-1.319,-1.292 -3.771,-1.938 -7.354,-1.938l-2.334,0c-3.333,0 -6.236,0.382 -8.708,1.146c-2.472,0.764 -3.903,1.965 -4.292,3.604l0,27c0,2.334 -1.166,3.5 -3.5,3.5Z" style="fill:#d34727;fill-rule:nonzero;"/><path d="M339.313,529.744c-2.639,-0 -3.959,-1.333 -3.959,-4l0,-2.458c0,-2.611 1.32,-3.917 3.959,-3.917l2.416,-0c2.528,-0 3.792,1.306 3.792,3.917l-0,2.458c-0,2.667 -1.264,4 -3.792,4l-2.416,-0Zm1.166,49.083c-2.333,0 -3.5,-1.166 -3.5,-3.5l0,-35.25c0,-2.333 1.167,-3.5 3.5,-3.5c2.333,0 3.5,1.167 3.5,3.5l0,35.25c0,2.334 -1.167,3.5 -3.5,3.5Z" style="fill:#d34727;fill-rule:nonzero;"/><path d="M362.562,559.244c-0.777,-0 -1.458,-0.292 -2.041,-0.875c-0.584,-0.583 -0.875,-1.264 -0.875,-2.042c-0,-0.805 0.291,-1.493 0.875,-2.062c0.583,-0.57 1.264,-0.854 2.041,-0.854l23,-0c0.806,-0 1.494,0.284 2.063,0.854c0.569,0.569 0.854,1.257 0.854,2.062c0,0.778 -0.285,1.459 -0.854,2.042c-0.569,0.583 -1.257,0.875 -2.063,0.875l-23,-0Z" style="fill:#d34727;fill-rule:nonzero;"/><path d="M420.812,578.827c-6.361,0 -11.062,-1.521 -14.104,-4.562c-3.041,-3.042 -4.562,-7.743 -4.562,-14.104l-0,-19.167c-0,-6.417 1.514,-11.146 4.541,-14.188c3.028,-3.041 7.709,-4.534 14.042,-4.479l10.083,0c5.223,0 9.209,1.077 11.959,3.229c2.75,2.153 4.347,5.549 4.791,10.188c0.167,1.167 -0.055,2.056 -0.666,2.667c-0.611,0.611 -1.5,0.916 -2.667,0.916c-2.111,0 -3.333,-1.166 -3.667,-3.5c-0.277,-2.555 -1.159,-4.277 -2.645,-5.166c-1.486,-0.889 -3.855,-1.334 -7.105,-1.334l-10.083,0c-2.944,-0.027 -5.257,0.306 -6.937,1c-1.681,0.695 -2.875,1.896 -3.584,3.604c-0.708,1.709 -1.062,4.063 -1.062,7.063l-0,19.167c-0,2.972 0.354,5.305 1.062,7c0.709,1.694 1.91,2.895 3.604,3.604c1.695,0.708 4.028,1.062 7,1.062l10,0c3.25,0 5.619,-0.451 7.105,-1.354c1.486,-0.903 2.368,-2.618 2.645,-5.146c0.334,-2.333 1.556,-3.5 3.667,-3.5c1.167,0 2.056,0.306 2.667,0.917c0.611,0.611 0.833,1.5 0.666,2.667c-0.444,4.666 -2.041,8.069 -4.791,10.208c-2.75,2.139 -6.736,3.208 -11.959,3.208l-10,0Z" style="fill:#d34727;fill-rule:nonzero;"/><path d="M465.646,578.827c-2.334,0 -3.5,-1.166 -3.5,-3.5l-0,-49.5c-0,-2.333 1.166,-3.5 3.5,-3.5c1.528,0 2.805,0.75 3.833,2.25l19.667,29.584l-1.5,0.25l19.833,-29.834c0.945,-1.5 2.361,-2.25 4.25,-2.25c1.889,0 2.833,1.167 2.833,3.5l0,49.5c0,2.334 -1.166,3.5 -3.5,3.5c-2.333,0 -3.5,-1.166 -3.5,-3.5l0,-42.5l2.167,0.75l-17.5,25.75c-1.028,1.5 -2.444,2.25 -4.25,2.25c-1.25,0 -2.389,-0.75 -3.417,-2.25l-17.5,-25.75l2.084,0.584l-0,41.166c-0,2.334 -1.167,3.5 -3.5,3.5Z" style="fill:#d34727;fill-rule:nonzero;"/><path d="M546.021,578.827c-4.75,0 -8.452,-0.958 -11.104,-2.875c-2.653,-1.916 -4.313,-4.875 -4.98,-8.875c-0.111,-1.222 0.139,-2.139 0.75,-2.75c0.612,-0.611 1.5,-0.916 2.667,-0.916c1.167,-0 2.021,0.277 2.563,0.833c0.541,0.556 0.909,1.417 1.104,2.583c0.416,1.917 1.312,3.229 2.687,3.938c1.375,0.708 3.479,1.062 6.313,1.062l12,0c3.583,0 6.021,-0.646 7.312,-1.937c1.292,-1.292 1.938,-3.702 1.938,-7.229c-0,-3.584 -0.667,-6.035 -2,-7.355c-1.334,-1.319 -3.75,-1.979 -7.25,-1.979l-10.334,0c-5.25,0 -9.145,-1.284 -11.687,-3.854c-2.542,-2.569 -3.813,-6.479 -3.813,-11.729c0,-5.222 1.257,-9.097 3.771,-11.625c2.514,-2.528 6.396,-3.792 11.646,-3.792l9.917,0c4.416,0 7.882,0.903 10.396,2.709c2.514,1.805 4.104,4.569 4.77,8.291c0.167,1.195 -0.055,2.104 -0.666,2.729c-0.611,0.625 -1.528,0.938 -2.75,0.938c-1.111,-0 -1.945,-0.292 -2.5,-0.875c-0.556,-0.583 -0.917,-1.431 -1.083,-2.542c-0.445,-1.639 -1.292,-2.757 -2.542,-3.354c-1.25,-0.597 -3.125,-0.896 -5.625,-0.896l-9.917,0c-3.333,0 -5.569,0.591 -6.708,1.771c-1.139,1.181 -1.708,3.396 -1.708,6.646c-0,3.278 0.583,5.528 1.75,6.75c1.166,1.222 3.416,1.833 6.75,1.833l10.333,0c5.472,0 9.548,1.334 12.229,4c2.681,2.667 4.021,6.778 4.021,12.334c-0,5.527 -1.333,9.604 -4,12.229c-2.667,2.625 -6.75,3.937 -12.25,3.937l-12,0Z" style="fill:#d34727;fill-rule:nonzero;"/></g><g><path d="M194.229,581.827c-2.333,0 -3.5,-1.166 -3.5,-3.5l0,-49.5c0,-2.333 1.167,-3.5 3.5,-3.5c1.528,0 2.806,0.75 3.833,2.25l19.667,29.584l-1.5,0.25l19.834,-29.834c0.944,-1.5 2.361,-2.25 4.25,-2.25c1.888,0 2.833,1.167 2.833,3.5l-0,49.5c-0,2.334 -1.167,3.5 -3.5,3.5c-2.333,0 -3.5,-1.166 -3.5,-3.5l-0,-42.5l2.167,0.75l-17.5,25.75c-1.028,1.5 -2.445,2.25 -4.25,2.25c-1.251,0 -2.389,-0.75 -3.417,-2.25l-17.5,-25.75l2.083,0.584l0,41.166c0,2.334 -1.167,3.5 -3.5,3.5Z" style="fill:#fff;fill-rule:nonzero;"/><path d="M262.813,532.744c-2.639,-0 -3.959,-1.333 -3.959,-4l0,-2.458c0,-2.611 1.32,-3.917 3.959,-3.917l2.416,-0c2.528,-0 3.792,1.306 3.792,3.917l-0,2.458c-0,2.667 -1.264,4 -3.792,4l-2.416,-0Zm1.166,49.083c-2.333,0 -3.5,-1.166 -3.5,-3.5l0,-35.25c0,-2.333 1.167,-3.5 3.5,-3.5c2.333,0 3.5,1.167 3.5,3.5l0,35.25c0,2.334 -1.167,3.5 -3.5,3.5Z" style="fill:#fff;fill-rule:nonzero;"/><path d="M288.312,581.827c-2.333,0 -3.499,-1.166 -3.499,-3.5l-0,-35.25c-0,-2.333 1.166,-3.5 3.499,-3.5c2.334,0 3.5,1.167 3.5,3.5l0,1.375c2.945,-3.25 7.278,-4.875 13,-4.875l2.334,0c5.555,0 9.666,1.334 12.333,4c2.667,2.667 4,6.778 4,12.334l0,22.416c0,2.334 -1.166,3.5 -3.5,3.5c-2.333,0 -3.5,-1.166 -3.5,-3.5l0,-22.416c0,-3.639 -0.66,-6.105 -1.979,-7.396c-1.319,-1.292 -3.771,-1.938 -7.354,-1.938l-2.334,0c-3.333,0 -6.236,0.382 -8.708,1.146c-2.472,0.764 -3.903,1.965 -4.292,3.604l0,27c0,2.334 -1.166,3.5 -3.5,3.5Z" style="fill:#fff;fill-rule:nonzero;"/><path d="M342.313,532.744c-2.639,-0 -3.959,-1.333 -3.959,-4l0,-2.458c0,-2.611 1.32,-3.917 3.959,-3.917l2.416,-0c2.528,-0 3.792,1.306 3.792,3.917l-0,2.458c-0,2.667 -1.264,4 -3.792,4l-2.416,-0Zm1.166,49.083c-2.333,0 -3.5,-1.166 -3.5,-3.5l0,-35.25c0,-2.333 1.167,-3.5 3.5,-3.5c2.333,0 3.5,1.167 3.5,3.5l0,35.25c0,2.334 -1.167,3.5 -3.5,3.5Z" style="fill:#fff;fill-rule:nonzero;"/><path d="M365.562,562.244c-0.777,-0 -1.458,-0.292 -2.041,-0.875c-0.584,-0.583 -0.875,-1.264 -0.875,-2.042c-0,-0.805 0.291,-1.493 0.875,-2.062c0.583,-0.57 1.264,-0.854 2.041,-0.854l23,-0c0.806,-0 1.494,0.284 2.063,0.854c0.569,0.569 0.854,1.257 0.854,2.062c0,0.778 -0.285,1.459 -0.854,2.042c-0.569,0.583 -1.257,0.875 -2.063,0.875l-23,-0Z" style="fill:#fff;fill-rule:nonzero;"/><path d="M423.812,581.827c-6.361,0 -11.062,-1.521 -14.104,-4.562c-3.041,-3.042 -4.562,-7.743 -4.562,-14.104l-0,-19.167c-0,-6.417 1.514,-11.146 4.541,-14.188c3.028,-3.041 7.709,-4.534 14.042,-4.479l10.083,0c5.223,0 9.209,1.077 11.959,3.229c2.75,2.153 4.347,5.549 4.791,10.188c0.167,1.167 -0.055,2.056 -0.666,2.667c-0.611,0.611 -1.5,0.916 -2.667,0.916c-2.111,0 -3.333,-1.166 -3.667,-3.5c-0.277,-2.555 -1.159,-4.277 -2.645,-5.166c-1.486,-0.889 -3.855,-1.334 -7.105,-1.334l-10.083,0c-2.944,-0.027 -5.257,0.306 -6.937,1c-1.681,0.695 -2.875,1.896 -3.584,3.604c-0.708,1.709 -1.062,4.063 -1.062,7.063l-0,19.167c-0,2.972 0.354,5.305 1.062,7c0.709,1.694 1.91,2.895 3.604,3.604c1.695,0.708 4.028,1.062 7,1.062l10,0c3.25,0 5.619,-0.451 7.105,-1.354c1.486,-0.903 2.368,-2.618 2.645,-5.146c0.334,-2.333 1.556,-3.5 3.667,-3.5c1.167,0 2.056,0.306 2.667,0.917c0.611,0.611 0.833,1.5 0.666,2.667c-0.444,4.666 -2.041,8.069 -4.791,10.208c-2.75,2.139 -6.736,3.208 -11.959,3.208l-10,0Z" style="fill:#fff;fill-rule:nonzero;"/><path d="M468.646,581.827c-2.334,0 -3.5,-1.166 -3.5,-3.5l-0,-49.5c-0,-2.333 1.166,-3.5 3.5,-3.5c1.528,0 2.805,0.75 3.833,2.25l19.667,29.584l-1.5,0.25l19.833,-29.834c0.945,-1.5 2.361,-2.25 4.25,-2.25c1.889,0 2.833,1.167 2.833,3.5l0,49.5c0,2.334 -1.166,3.5 -3.5,3.5c-2.333,0 -3.5,-1.166 -3.5,-3.5l0,-42.5l2.167,0.75l-17.5,25.75c-1.028,1.5 -2.444,2.25 -4.25,2.25c-1.25,0 -2.389,-0.75 -3.417,-2.25l-17.5,-25.75l2.084,0.584l-0,41.166c-0,2.334 -1.167,3.5 -3.5,3.5Z" style="fill:#fff;fill-rule:nonzero;"/><path d="M549.021,581.827c-4.75,0 -8.452,-0.958 -11.104,-2.875c-2.653,-1.916 -4.313,-4.875 -4.98,-8.875c-0.111,-1.222 0.139,-2.139 0.75,-2.75c0.612,-0.611 1.5,-0.916 2.667,-0.916c1.167,-0 2.021,0.277 2.563,0.833c0.541,0.556 0.909,1.417 1.104,2.583c0.416,1.917 1.312,3.229 2.687,3.938c1.375,0.708 3.479,1.062 6.313,1.062l12,0c3.583,0 6.021,-0.646 7.312,-1.937c1.292,-1.292 1.938,-3.702 1.938,-7.229c-0,-3.584 -0.667,-6.035 -2,-7.355c-1.334,-1.319 -3.75,-1.979 -7.25,-1.979l-10.334,0c-5.25,0 -9.145,-1.284 -11.687,-3.854c-2.542,-2.569 -3.813,-6.479 -3.813,-11.729c0,-5.222 1.257,-9.097 3.771,-11.625c2.514,-2.528 6.396,-3.792 11.646,-3.792l9.917,0c4.416,0 7.882,0.903 10.396,2.709c2.514,1.805 4.104,4.569 4.77,8.291c0.167,1.195 -0.055,2.104 -0.666,2.729c-0.611,0.625 -1.528,0.938 -2.75,0.938c-1.111,-0 -1.945,-0.292 -2.5,-0.875c-0.556,-0.583 -0.917,-1.431 -1.083,-2.542c-0.445,-1.639 -1.292,-2.757 -2.542,-3.354c-1.25,-0.597 -3.125,-0.896 -5.625,-0.896l-9.917,0c-3.333,0 -5.569,0.591 -6.708,1.771c-1.139,1.181 -1.708,3.396 -1.708,6.646c-0,3.278 0.583,5.528 1.75,6.75c1.166,1.222 3.416,1.833 6.75,1.833l10.333,0c5.472,0 9.548,1.334 12.229,4c2.681,2.667 4.021,6.778 4.021,12.334c-0,5.527 -1.333,9.604 -4,12.229c-2.667,2.625 -6.75,3.937 -12.25,3.937l-12,0Z" style="fill:#fff;fill-rule:nonzero;"/></g></svg>